<svg width="180" height="180" viewBox="0 0 180 180" fill="none" xmlns="http://www.w3.org/2000/svg">
  <style>
    @media (prefers-color-scheme: light) {
      .background { fill: #9333ea; }
      .foreground { fill: white; }
    }
    @media (prefers-color-scheme: dark) {
      .background { fill: white; }
      .foreground { fill: #9333ea; }
    }
  </style>
  <g clip-path="url(#clip0)">
    <rect class="background" width="180" height="180" rx="37" />
    <g style="transform: scale(85%); transform-origin: center">
      <!-- 头部轮廓 -->
      <circle class="foreground" cx="90" cy="70" r="30" />
      <!-- 头发 -->
      <path class="foreground" d="M60 60 Q45 55 45 70 Q45 90 60 85 Q75 95 90 95 Q105 95 120 85 Q135 90 135 70 Q135 55 120 60" />
      <!-- 面部特征 -->
      <circle class="background" cx="80" cy="65" r="3" />
      <circle class="background" cx="100" cy="65" r="3" />
      <path class="background" d="M80 75 Q90 80 100 75" />
      <!-- AI效果线条 -->
      <path class="foreground" d="M30 100 Q50 95 70 105" stroke="white" stroke-width="2" fill="none" stroke-dasharray="5,5" />
      <path class="foreground" d="M150 100 Q130 95 110 105" stroke="white" stroke-width="2" fill="none" stroke-dasharray="5,5" />
    </g>
  </g>
  <defs>
    <clipPath id="clip0">
      <rect width="180" height="180" fill="white" />
    </clipPath>
  </defs>
</svg>